<?xml version="1.0" encoding="utf-8"?>
<!-- Generator: Adobe Illustrator 24.3.0, SVG Export Plug-In . SVG Version: 6.00 Build 0)  -->
<svg version="1.1" id="Layer_1" xmlns="http://www.w3.org/2000/svg" xmlns:xlink="http://www.w3.org/1999/xlink" x="0px" y="0px"
	 viewBox="0 0 226.77 226.77" style="enable-background:new 0 0 226.77 226.77;" xml:space="preserve">
<g>
	<g>
		<path style="fill:#D91F29;" d="M166.76,136.95L48.03,159.39C68,124.79,96.72,75.13,115.16,43.22c6.36-11.05,22.03-11.81,29.44-1.44
			c13.41,18.7,29.03,40.45,29.03,40.45c-9.42,5.42-21.45,2.75-27.68-6.18c-3.18-4.54-6.61-9.42-9.59-13.69
			c-2.96-4.19-9.24-3.9-11.81,0.53c-12.69,21.99-26.05,45.13-38.52,66.7h52.7c-2.38-3.35-7.72-10.66-12.77-17.53
			c-6.02-8.21-3.53-19.85,5.34-24.9C131.32,87.16,151.77,115.9,166.76,136.95z"/>
	</g>
	<g>
		<polygon style="fill:#22408B;" points="168.25,139.04 197.51,131.14 171.5,143.62 159.59,149.35 159.57,149.35 70.06,192.32 29.26,192.32 
			39.94,173.8 39.98,173.74 118.55,152.49 		"/>
		<polygon style="fill:#22408B;" points="197.51,131.14 173.63,162.32 150.68,192.32 102.39,192.32 170.51,148.51 173.57,146.53 		"/>
	</g>
	<g>
		<polygon style="fill:#FFFFFF;" points="197.51,131.14 168.25,139.06 118.69,152.47 39.94,173.8 39.98,173.74 118.55,152.49 168.25,139.04 		
			"/>
	</g>
</g>
</svg>
