<?xml version="1.0" encoding="utf-8"?>
<!-- Generator: Adobe Illustrator 24.3.0, SVG Export Plug-In . SVG Version: 6.00 Build 0)  -->
<svg version="1.1" id="Layer_1" xmlns="http://www.w3.org/2000/svg" xmlns:xlink="http://www.w3.org/1999/xlink" x="0px" y="0px"
	 viewBox="0 0 226.77 115.71" style="enable-background:new 0 0 226.77 115.71;" xml:space="preserve">
<style type="text/css">
	.st0{display:none;fill:#FFFFFF;stroke:#231F20;stroke-miterlimit:10;}
	.st1{fill:#22408B;}
	.st2{fill:#000000;}
	.st3{fill:#D91F29;}
	.st4{fill:#FFFFFF;}
	.st5{fill:#FFFFFF;stroke:#000000;stroke-width:0.5;stroke-miterlimit:10;}
</style>
<g>
	<path fill="#22408B" d="M51.77,44.03c0,0-1.79,1.36-2.37,4.55l-1.7,9.78c0,0-3.2,2.66-11.62,2.66c-8.43,0-12.25-6.1-10.9-13.66
		c1.31-7.51,6.78-13.61,15.26-13.61c7.17,0,10.32,1.4,10.32,1.4l-1.4,8.04c-2.37-2.37-5.38-4.02-9.01-4.02
		c-4.12,0-6.97,3.68-7.8,8.23c-0.77,4.5,1.36,8.18,4.94,8.18c1.36,0,2.47-0.34,3.44-0.82l1.07-6.2c0.58-3.2-0.78-4.55-0.78-4.55
		H51.77z"/>
	<path fill="#22408B" d="M70.99,55.12c-0.48,2.81,2.52,2.33,2.52,2.33s-3.1,3.58-6.68,3.58c-2.33,0-3.54-1.26-3.1-3.83v-0.1
		c0,0-2.33,3.54-3.34,3.73c-0.63,0.15-1.21,0.19-1.89,0.19c-5.76,0-7.94-4.7-6.88-10.65c1.07-6.01,4.89-10.7,10.66-10.7
		c2.86,0,4.12,2.47,4.12,2.47l7.36-2.47L70.99,55.12z M64.94,50.37c0.58-3.34,0.1-6.01-2.18-6.01c-2.08,0-3.68,2.66-4.26,6.01
		c-0.58,3.29,0.05,5.96,2.13,5.96C62.9,56.33,64.36,53.67,64.94,50.37z"/>
	<path fill="#22408B" d="M94.14,55.12c-0.48,2.81,2.52,2.33,2.52,2.33s-3.1,3.58-6.68,3.58c-2.33,0-3.54-1.26-3.1-3.83v-0.1
		c0,0-2.33,3.54-3.34,3.73c-0.63,0.15-1.21,0.19-1.89,0.19c-5.76,0-7.94-4.7-6.88-10.65c1.07-6.01,4.89-10.7,10.66-10.7
		c2.86,0,4.12,2.47,4.12,2.47l7.36-2.47L94.14,55.12z M88.09,50.37c0.58-3.34,0.1-6.01-2.18-6.01c-2.08,0-3.68,2.66-4.26,6.01
		c-0.58,3.29,0.05,5.96,2.13,5.96C86.05,56.33,87.5,53.67,88.09,50.37z"/>
	<path fill="#22408B" d="M113.8,61.03c-2.28,0-3.49-1.26-3.1-3.73c0,0-2.13,3.39-2.95,3.54c-0.63,0.15-1.21,0.19-1.79,0.19
		c-4.6,0-7.65-3.73-6.88-8.38l0.97-5.38c0.58-3.25-0.77-4.6-0.77-4.6l9.06-3l-2.42,13.66c-0.24,1.5,0.73,2.71,2.28,2.71
		c1.5,0,2.95-1.21,3.2-2.71l1.07-6.05c0.58-3.25-0.73-4.6-0.73-4.6l9.06-3l-2.76,15.45c-0.48,2.81,2.52,2.33,2.52,2.33
		S117.43,61.03,113.8,61.03z"/>
	<path fill="#22408B" d="M154.28,53.09c-0.73,4.12-4.7,7.51-8.81,7.51h-14.38c0,0,1.79-1.36,2.37-4.6l3.05-17.19
		c0.58-3.25-0.78-4.6-0.78-4.6h13.03c3.68,0,6.1,2.95,5.42,6.63c-0.34,2.13-1.7,4.02-3.54,5.23
		C153.32,47.13,154.82,49.89,154.28,53.09z M147.02,52.31c0.29-1.84-0.87-3.34-2.71-3.34h-2.23l-1.16,6.63h2.23
		C144.99,55.61,146.68,54.15,147.02,52.31z M142.95,44.03h0.87c1.36,0,2.62-1.11,2.86-2.42c0.24-1.36-0.68-2.42-2.03-2.42h-0.87
		L142.95,44.03z"/>
	<path fill="#22408B" d="M173.94,52.41h-11.29c0.1,1.94,1.89,3.15,3.44,3.49c2.03,0.48,5.71,0.05,8.43-2.23c0,0-1.94,7.36-11.04,7.36
		c-6.83,0-8.67-5.42-7.75-10.65c1.02-5.91,5.04-10.7,11.67-10.7C173.36,39.67,177.04,44.37,173.94,52.41z M163.24,48.34h5.04
		c0.29-2.42,0.05-3.97-1.65-3.97C164.79,44.37,163.87,45.92,163.24,48.34z"/>
	<path fill="#22408B" d="M194.38,40.54l-1.26,6.54c0,0-8.14-4.31-8.62-1.55c-0.44,2.47,9.01,2.23,7.85,8.91
		c-0.87,4.89-4.84,6.59-9.78,6.59c-3.92,0-7.75-0.82-7.75-0.82l1.16-6.63c0,0,8.72,4.17,9.15,1.79c0.39-2.28-9.49-2.47-8.33-9.11
		c0.78-4.46,5.62-6.59,9.83-6.59C190.51,39.67,194.38,40.54,194.38,40.54z"/>
	<path fill="#22408B" d="M204.26,57.45c0,0-3.1,3.58-6.68,3.58c-2.33,0-3.54-1.26-3.1-3.83l1.74-9.93c0.58-3.25-0.78-4.6-0.78-4.6
		l9.06-3l-2.76,15.45C201.26,57.93,204.26,57.45,204.26,57.45z M196.51,36.96c-0.1-1.89,1.65-3.78,3.92-4.21
		c2.23-0.48,4.07,0.68,4.17,2.52c0.05,1.89-1.7,3.78-3.92,4.26C198.45,39.96,196.61,38.8,196.51,36.96z"/>
</g>
<g>
	<path fill="#000000" d="M57.78,86.62l3.59-17.74h2.92l-3.06,15.14h7.41l-0.53,2.6H57.78z"/>
	<path fill="#000000" d="M71.06,80.32l0.1-0.49c0.7-3.48,3.99-6.76,8.44-6.76c4.45,0,6.4,3.28,5.7,6.76l-0.1,0.49
		c-0.69,3.4-3.86,6.73-8.43,6.73C72.2,87.06,70.37,83.73,71.06,80.32z M82.41,80.08c0.53-2.6-0.69-4.52-3.31-4.52
		s-4.62,1.92-5.14,4.52c-0.52,2.55,0.62,4.5,3.32,4.5S81.89,82.63,82.41,80.08z"/>
	<path fill="#000000" d="M87.56,91.48l0.49-2.41c1.13,0.17,2.49,0.29,3.63,0.29c3.4,0,4.96-1.24,5.55-4.16l0.24-1.17
		c-1.28,1.77-3.14,2.67-5.16,2.67c-3.64,0-5.47-2.96-4.73-6.63l0.09-0.46c0.75-3.69,3.87-6.51,7.56-6.51c2.26,0,3.79,1.07,4.27,3.01
		l0.53-2.6h2.26l-2.33,11.54c-0.96,4.76-3.54,6.68-8.81,6.68C89.91,91.75,88.62,91.65,87.56,91.48z M98.22,80.23l0.2-1
		c0.49-2.41-1.08-3.77-3.1-3.77c-2.36,0-4.31,1.75-4.84,4.38c-0.54,2.7,0.75,4.35,3.06,4.35C95.64,84.19,97.72,82.71,98.22,80.23z"
		/>
	<path fill="#000000" d="M104.32,86.62l2.21-10.91h-1.92l0.44-2.19h4.76l-2.65,13.1H104.32z M106.86,70.04
		c0.19-0.95,0.89-1.65,2.06-1.65c1.19,0,1.61,0.7,1.41,1.65c-0.2,0.97-0.89,1.65-2.08,1.65C107.09,71.7,106.67,71.02,106.86,70.04z"
		/>
	<path fill="#000000" d="M111.02,82.8h2.62c-0.12,0.97,0.53,1.94,2.67,1.94c1.82,0,3.07-0.78,3.29-1.87c0.2-0.97-0.4-1.53-2.15-1.73
		l-1.26-0.12c-2.64-0.29-4.05-1.58-3.6-3.82c0.53-2.6,2.94-4.08,5.95-4.08c3.09,0,4.87,1.41,4.43,4.06h-2.6
		c0.13-1-0.59-1.77-2.29-1.77c-1.63,0-2.65,0.73-2.85,1.73c-0.18,0.9,0.3,1.41,1.75,1.58l1.26,0.12c2.88,0.32,4.48,1.65,4.01,3.96
		c-0.51,2.53-3.11,4.2-6.41,4.2C112.3,87.01,110.58,85.43,111.02,82.8z"/>
	<path fill="#000000" d="M129.92,86.76c-3.26,0-4.77-1.17-4.03-4.84l1.27-6.29H125l0.43-2.11h2.16l0.77-3.82h2.7l-0.77,3.82h4.28
		l-0.43,2.11h-4.28l-1.32,6.54c-0.27,1.34,0.33,2.12,1.66,2.12h2.19l-0.5,2.48H129.92z"/>
	<path fill="#000000" d="M135.64,86.62l2.21-10.91h-1.92l0.44-2.19h4.76l-2.65,13.1H135.64z M138.19,70.04
		c0.19-0.95,0.89-1.65,2.06-1.65c1.19,0,1.61,0.7,1.42,1.65c-0.2,0.97-0.89,1.65-2.08,1.65C138.41,71.7,137.99,71.02,138.19,70.04z"
		/>
	<path fill="#000000" d="M143.06,80.3l0.09-0.44c0.69-3.4,3.58-6.78,7.95-6.78c3.35,0,5.42,2.02,4.99,5.1h-2.75
		c0.08-1.48-0.83-2.6-2.75-2.6c-2.53,0-4.12,1.9-4.65,4.5c-0.51,2.53,0.29,4.47,2.86,4.47c1.97,0,3.43-1.12,3.92-2.67h2.77
		c-0.8,3.13-3.81,5.18-7.19,5.18C143.81,87.06,142.39,83.61,143.06,80.3z"/>
	<path fill="#000000" d="M157.11,82.8h2.62c-0.12,0.97,0.53,1.94,2.67,1.94c1.82,0,3.07-0.78,3.29-1.87c0.2-0.97-0.39-1.53-2.15-1.73
		l-1.26-0.12c-2.64-0.29-4.05-1.58-3.6-3.82c0.53-2.6,2.94-4.08,5.95-4.08c3.09,0,4.87,1.41,4.43,4.06h-2.6
		c0.13-1-0.59-1.77-2.29-1.77c-1.63,0-2.65,0.73-2.85,1.73c-0.18,0.9,0.3,1.41,1.75,1.58l1.26,0.12c2.88,0.32,4.48,1.65,4.01,3.96
		c-0.51,2.53-3.11,4.2-6.41,4.2C158.4,87.01,156.68,85.43,157.11,82.8z"/>
</g>
</svg>
